<svg xmlns="http://www.w3.org/2000/svg" viewBox="0 0 32 32" fill="none">
  <rect width="32" height="32" rx="6" fill="#3B82F6"/>
  <rect x="4" y="6" width="24" height="20" rx="2" fill="white" stroke="#1E40AF" stroke-width="1"/>
  <rect x="6" y="8" width="20" height="6" rx="1" fill="#F3F4F6"/>
  <text x="16" y="12.5" text-anchor="middle" font-family="monospace" font-size="4" fill="#1F2937">123</text>
  <rect x="6" y="15" width="4" height="3" rx="0.5" fill="#E5E7EB"/>
  <rect x="11" y="15" width="4" height="3" rx="0.5" fill="#E5E7EB"/>
  <rect x="16" y="15" width="4" height="3" rx="0.5" fill="#E5E7EB"/>
  <rect x="21" y="15" width="4" height="3" rx="0.5" fill="#3B82F6"/>
  <rect x="6" y="19" width="4" height="3" rx="0.5" fill="#E5E7EB"/>
  <rect x="11" y="19" width="4" height="3" rx="0.5" fill="#E5E7EB"/>
  <rect x="16" y="19" width="4" height="3" rx="0.5" fill="#E5E7EB"/>
  <rect x="21" y="19" width="4" height="3" rx="0.5" fill="#3B82F6"/>
  <rect x="6" y="23" width="4" height="3" rx="0.5" fill="#E5E7EB"/>
  <rect x="11" y="23" width="4" height="3" rx="0.5" fill="#E5E7EB"/>
  <rect x="16" y="23" width="4" height="3" rx="0.5" fill="#E5E7EB"/>
  <rect x="21" y="23" width="4" height="3" rx="0.5" fill="#3B82F6"/>
</svg>
